{"title":"Double Crossbones(1951)MP-4[DaScubaDude]","uid":12797526,"size":764254851,"categoryP":"video","categoryS":"movies","magnet":"?xt=urn:btih:d32b8a83ecb9d9c4ea7b7a177af5eca5e5ef6758&amp;dn=Double+Crossbones%281951%29MP-4%5BDaScubaDude%5D&amp;tr=udp%3A%2F%2Ftracker.leechers-paradise.org%3A6969&amp;tr=udp%3A%2F%2Fzer0day.ch%3A1337&amp;tr=udp%3A%2F%2Fopen.demonii.com%3A1337&amp;tr=udp%3A%2F%2Ftracker.coppersurfer.tk%3A6969&amp;tr=udp%3A%2F%2Fexodus.desync.com%3A6969","seeders":1,"leechers":1,"uploader":"dascuba","files":1,"time":1447997911,"description":"\nSee More on IMDb Pro »\r\nDouble Crossbones (1951)\r\n75 min  |  Adventure, Comedy, History  |  22 January 1951 (Sweden)\r\n5.8 Your rating:   -/10   Ratings: 5.8/10 from 151 users   \r\nReviews: 6 user | 1 critic\r\nAfter being falsely accused of dishonesty, a young man decides to become a pirate.\r\n\r\nDirector: Charles Barton (as Charles T. Barton)\r\nWriters: Oscar Brodney (screenplay), Oscar Brodney (story), 1 more credit »\r\nStars: Donald O'Connor, Helena Carter, Will Geer\r\n\r\nGeneral\r\nComplete name                            : C:Double CrossbonesPIRATE_FRANCHISE_COLLECTION_Title2.mp4\r\nFormat                                   : MPEG-4\r\nFormat profile                           : Base Media\r\nCodec ID                                 : isom\r\nFile size                                : 729 MiB\r\nDuration                                 : 1h 15mn\r\nOverall bit rate                         : 1 347 Kbps\r\nMovie name                               : PIRATE_FRANCHISE_COLLECTION\r\nWriting application                      : Lavf54.6.100\r\n\r\nVideo\r\nID                                       : 1\r\nFormat                                   : AVC\r\nFormat/Info                              : Advanced Video Codec\r\nFormat profile                           :   \r\nFormat settings, CABAC                   : No\r\nFormat settings, ReFrames                : 6 frames\r\nFormat settings, GOP                     : M=1, N=60\r\nCodec ID                                 : avc1\r\nCodec ID/Info                            : Advanced Video Coding\r\nDuration                                 : 1h 15mn\r\nBit rate                                 : 1 204 Kbps\r\nWidth                                    : 720 pixels\r\nHeight                                   : 540 pixels\r\nDisplay aspect ratio                     : 4:3\r\nFrame rate mode                          : Constant\r\nFrame rate                               : 29.970 fps\r\nColor space                              : YUV\r\nChroma subsampling                       : 4:2:0\r\nBit depth                                : 8 bits\r\nScan type                                : Progressive\r\nBits/(Pixel*Frame)                       : 0.103\r\nStream size                              : 651 MiB (89%)\r\n\r\nAudio\r\nID                                       : 2\r\nFormat                                   : AAC\r\nFormat/Info                              : Advanced Audio Codec\r\nFormat profile                           : LC\r\nCodec ID                                 : 40\r\nDuration                                 : 1h 15mn\r\nBit rate mode                            : Constant\r\nBit rate                                 : 137 Kbps\r\nChannel(s)                               : 2 channels\r\nChannel positions                        : Front: L R\r\nSampling rate                            : 44.1 KHz\r\nCompression mode                         : Lossy\r\nStream size                              : 74.2 MiB (10%)","torrent":{"xt":"urn:btih:d32b8a83ecb9d9c4ea7b7a177af5eca5e5ef6758","amp;dn":"Double+Crossbones%281951%29MP-4%5BDaScubaDude%5D","amp;tr":["udp%3A%2F%2Ftracker.leechers-paradise.org%3A6969","udp%3A%2F%2Fzer0day.ch%3A1337","udp%3A%2F%2Fopen.demonii.com%3A1337","udp%3A%2F%2Ftracker.coppersurfer.tk%3A6969","udp%3A%2F%2Fexodus.desync.com%3A6969"],"infoHash":"d32b8a83ecb9d9c4ea7b7a177af5eca5e5ef6758","infoHashBuffer":{"type":"Buffer","data":[211,43,138,131,236,185,217,196,234,123,122,23,122,245,236,165,229,239,103,88]},"announce":[],"urlList":[]}}